<?xml version="1.0" encoding="UTF-8"?>
<!DOCTYPE svg PUBLIC "-//W3C//DTD SVG 1.1//EN" "http://www.w3.org/Graphics/SVG/1.1/DTD/svg11.dtd">
<svg xmlns="http://www.w3.org/2000/svg" version="1.1" width="486px" height="48px" style="shape-rendering:geometricPrecision; text-rendering:geometricPrecision; image-rendering:optimizeQuality; fill-rule:evenodd; clip-rule:evenodd" xmlns:xlink="http://www.w3.org/1999/xlink">

<g><path style="opacity:0.869" fill="#fefffe" d="M -0.5,-0.5 C 2.16667,-0.5 4.83333,-0.5 7.5,-0.5C 7.5,5.5 7.5,11.5 7.5,17.5C 14.1667,17.5 20.8333,17.5 27.5,17.5C 27.5,11.5 27.5,5.5 27.5,-0.5C 30.1667,-0.5 32.8333,-0.5 35.5,-0.5C 35.5,14.5 35.5,29.5 35.5,44.5C 32.8333,44.5 30.1667,44.5 27.5,44.5C 27.5,37.8333 27.5,31.1667 27.5,24.5C 20.8333,24.5 14.1667,24.5 7.5,24.5C 7.5,31.1667 7.5,37.8333 7.5,44.5C 4.83333,44.5 2.16667,44.5 -0.5,44.5C -0.5,29.5 -0.5,14.5 -0.5,-0.5 Z"/></g>
<g><path style="opacity:0.838" fill="#fefffe" d="M 45.5,-0.5 C 48.5,-0.5 51.5,-0.5 54.5,-0.5C 58.0819,5.7542 62.0819,11.7542 66.5,17.5C 70.9932,11.8523 74.9932,5.85231 78.5,-0.5C 81.5,-0.5 84.5,-0.5 87.5,-0.5C 82.6454,8.5326 77.1454,17.1993 71,25.5C 70.5005,31.8246 70.3338,38.1579 70.5,44.5C 67.8333,44.5 65.1667,44.5 62.5,44.5C 62.6662,38.1579 62.4995,31.8246 62,25.5C 55.8546,17.1993 50.3546,8.5326 45.5,-0.5 Z"/></g>
<g><path style="opacity:0.851" fill="#fefffe" d="M 97.5,-0.5 C 105.167,-0.5 112.833,-0.5 120.5,-0.5C 131.855,3.02032 135.022,10.3536 130,21.5C 128.363,23.8102 126.196,25.3102 123.5,26C 117.565,27.2386 111.565,27.7386 105.5,27.5C 105.5,33.1667 105.5,38.8333 105.5,44.5C 102.833,44.5 100.167,44.5 97.5,44.5C 97.5,29.5 97.5,14.5 97.5,-0.5 Z M 105.5,7.5 C 110.844,7.33398 116.177,7.50065 121.5,8C 125.704,12.1555 125.371,15.8221 120.5,19C 115.511,19.4993 110.511,19.6659 105.5,19.5C 105.5,15.5 105.5,11.5 105.5,7.5 Z"/></g>
<g><path style="opacity:0.828" fill="#fefffe" d="M 144.5,-0.5 C 155.833,-0.5 167.167,-0.5 178.5,-0.5C 178.5,2.16667 178.5,4.83333 178.5,7.5C 169.833,7.5 161.167,7.5 152.5,7.5C 152.5,10.8333 152.5,14.1667 152.5,17.5C 160.5,17.5 168.5,17.5 176.5,17.5C 176.5,20.1667 176.5,22.8333 176.5,25.5C 168.5,25.5 160.5,25.5 152.5,25.5C 152.5,29.5 152.5,33.5 152.5,37.5C 161.5,37.5 170.5,37.5 179.5,37.5C 179.5,39.8333 179.5,42.1667 179.5,44.5C 167.833,44.5 156.167,44.5 144.5,44.5C 144.5,29.5 144.5,14.5 144.5,-0.5 Z"/></g>
<g><path style="opacity:0.868" fill="#fefffe" d="M 192.5,-0.5 C 200.833,-0.5 209.167,-0.5 217.5,-0.5C 226.866,1.88212 230.366,7.88212 228,17.5C 226.108,21.0579 223.275,23.5579 219.5,25C 224.417,30.7513 228.75,36.918 232.5,43.5C 229.216,44.657 225.882,44.8236 222.5,44C 218.992,37.9825 214.992,32.3159 210.5,27C 207.274,25.8011 203.941,25.3011 200.5,25.5C 200.5,31.8333 200.5,38.1667 200.5,44.5C 197.833,44.5 195.167,44.5 192.5,44.5C 192.5,29.5 192.5,14.5 192.5,-0.5 Z M 200.5,6.5 C 206.659,6.03389 212.659,6.70055 218.5,8.5C 221.6,12.5025 220.933,15.6691 216.5,18C 211.177,18.4994 205.844,18.666 200.5,18.5C 200.5,14.5 200.5,10.5 200.5,6.5 Z"/></g>
<g><path style="opacity:0.842" fill="#fefffe" d="M 252.5,-0.5 C 256.833,-0.5 261.167,-0.5 265.5,-0.5C 272.554,1.92407 275.887,6.92407 275.5,14.5C 273.143,14.6633 270.81,14.4966 268.5,14C 266.09,7.46115 261.423,5.12782 254.5,7C 250.646,8.60756 249.646,11.2742 251.5,15C 257.121,16.822 262.788,18.4886 268.5,20C 278.6,25.7328 279.933,33.0661 272.5,42C 263.849,46.6087 255.182,46.6087 246.5,42C 242.328,38.497 240.328,33.997 240.5,28.5C 243.167,28.5 245.833,28.5 248.5,28.5C 248.665,30.8268 249.331,32.9935 250.5,35C 256.028,38.8586 261.695,39.192 267.5,36C 270.08,33.4556 270.08,30.9556 267.5,28.5C 261.993,26.2059 256.326,24.3726 250.5,23C 243.334,20.1659 240.834,14.9992 243,7.5C 245.161,3.49524 248.328,0.82857 252.5,-0.5 Z"/></g>
<g><path style="opacity:0.855" fill="#fefffe" d="M 303.5,-0.5 C 307.833,-0.5 312.167,-0.5 316.5,-0.5C 330.569,7.36581 334.735,19.0325 329,34.5C 322.268,44.4802 313.101,47.6468 301.5,44C 290.214,37.858 286.047,28.358 289,15.5C 290.919,7.41857 295.753,2.08524 303.5,-0.5 Z M 306.5,6.5 C 317.32,6.31906 322.987,11.6524 323.5,22.5C 322.52,35.3248 315.853,40.1582 303.5,37C 296.404,30.5111 294.571,22.6778 298,13.5C 300.217,10.3227 303.05,7.98935 306.5,6.5 Z"/></g>
<g><path style="opacity:0.872" fill="#fefffe" d="M 343.5,-0.5 C 346.167,-0.5 348.833,-0.5 351.5,-0.5C 358.323,9.80481 365.156,20.1381 372,30.5C 372.5,20.172 372.666,9.83871 372.5,-0.5C 374.833,-0.5 377.167,-0.5 379.5,-0.5C 379.5,14.5 379.5,29.5 379.5,44.5C 376.552,44.7771 373.719,44.4438 371,43.5C 364.667,33.8333 358.333,24.1667 352,14.5C 351.5,24.4944 351.334,34.4944 351.5,44.5C 348.833,44.5 346.167,44.5 343.5,44.5C 343.5,29.5 343.5,14.5 343.5,-0.5 Z"/></g>
<g><path style="opacity:0.853" fill="#fefffe" d="M 395.5,-0.5 C 398.167,-0.5 400.833,-0.5 403.5,-0.5C 403.5,14.5 403.5,29.5 403.5,44.5C 400.833,44.5 398.167,44.5 395.5,44.5C 395.5,29.5 395.5,14.5 395.5,-0.5 Z"/></g>
<g><path style="opacity:0.848" fill="#fffdfd" d="M 431.5,-0.5 C 435.833,-0.5 440.167,-0.5 444.5,-0.5C 456.685,5.20234 461.519,14.869 459,28.5C 458.028,32.4359 456.528,36.1026 454.5,39.5C 451.527,37.8532 448.86,35.8532 446.5,33.5C 449.168,32.5433 450.668,30.5433 451,27.5C 453.187,18.0203 450.021,11.187 441.5,7C 434.29,5.50409 429.123,8.00409 426,14.5C 422.963,22.7001 424.463,29.8667 430.5,36C 433.787,38.1674 437.12,38.6674 440.5,37.5C 444.283,38.0538 446.95,40.0538 448.5,43.5C 429.173,49.0129 418.506,41.8462 416.5,22C 416.641,11.0626 421.641,3.56256 431.5,-0.5 Z M 446.5,33.5 C 444.278,32.3124 441.945,31.3124 439.5,30.5C 438.218,32.1792 437.218,34.0126 436.5,36C 437.563,37.1882 438.897,37.6882 440.5,37.5C 437.12,38.6674 433.787,38.1674 430.5,36C 424.463,29.8667 422.963,22.7001 426,14.5C 429.123,8.00409 434.29,5.50409 441.5,7C 450.021,11.187 453.187,18.0203 451,27.5C 450.668,30.5433 449.168,32.5433 446.5,33.5 Z"/></g>
<g><path style="opacity:0.497" fill="#fefffe" d="M 485.5,33.5 C 485.5,36.1667 485.5,38.8333 485.5,41.5C 480.945,46.2888 476.112,46.6222 471,42.5C 468.158,32.6874 471.658,28.5207 481.5,30C 483.35,30.6897 484.684,31.8564 485.5,33.5 Z M 477.5,30.5 C 483.057,32.2739 484.724,35.6072 482.5,40.5C 481.5,40.1667 480.833,39.5 480.5,38.5C 481.681,36.802 481.681,35.1353 480.5,33.5C 478.556,32.8108 476.556,32.3108 474.5,32C 475.737,31.7679 476.737,31.2679 477.5,30.5 Z M 473.5,41.5 C 471.171,39.0041 471.004,36.3374 473,33.5C 473.497,36.146 473.664,38.8127 473.5,41.5 Z M 476.5,34.5 C 478.337,34.6395 478.67,35.3061 477.5,36.5C 476.702,36.0431 476.369,35.3764 476.5,34.5 Z M 473.5,41.5 C 474.5,41.5 475.5,41.5 476.5,41.5C 476.351,40.448 476.517,39.448 477,38.5C 477.979,40.3203 479.479,41.487 481.5,42C 478.663,43.9956 475.996,43.8289 473.5,41.5 Z"/></g>
<g><path style="opacity:0.999" fill="#ff2f1c" d="M 446.5,33.5 C 448.86,35.8532 451.527,37.8532 454.5,39.5C 455.71,39.9321 456.71,40.5987 457.5,41.5C 458.551,42.2223 459.218,43.2223 459.5,44.5C 459.5,45.5 459.5,46.5 459.5,47.5C 457.833,47.5 456.167,47.5 454.5,47.5C 452.537,46.1798 450.537,44.8465 448.5,43.5C 446.95,40.0538 444.283,38.0538 440.5,37.5C 438.897,37.6882 437.563,37.1882 436.5,36C 437.218,34.0126 438.218,32.1792 439.5,30.5C 441.945,31.3124 444.278,32.3124 446.5,33.5 Z"/></g>
<g><path style="opacity:0.478" fill="#ffb1ad" d="M 457.5,41.5 C 458.5,41.5 459.5,41.5 460.5,41.5C 460.737,42.791 460.404,43.791 459.5,44.5C 459.218,43.2223 458.551,42.2223 457.5,41.5 Z"/></g>

</svg>
