<?xml version="1.0" encoding="UTF-8" standalone="no"?>
<!-- Created with Inkscape (http://www.inkscape.org/) -->

<svg
   width="592.18213"
   height="76.223175"
   viewBox="0 0 156.68152 20.167381"
   version="1.1"
   id="svg1"
   inkscape:version="1.3.2 (1:1.3.2+202311252150+091e20ef0f)"
   sodipodi:docname="LogoTest.svg"
   xmlns:inkscape="http://www.inkscape.org/namespaces/inkscape"
   xmlns:sodipodi="http://sodipodi.sourceforge.net/DTD/sodipodi-0.dtd"
   xmlns="http://www.w3.org/2000/svg"
   xmlns:svg="http://www.w3.org/2000/svg">
  <sodipodi:namedview
     id="namedview1"
     pagecolor="#505050"
     bordercolor="#eeeeee"
     borderopacity="1"
     inkscape:showpageshadow="0"
     inkscape:pageopacity="0"
     inkscape:pagecheckerboard="0"
     inkscape:deskcolor="#505050"
     inkscape:document-units="mm"
     inkscape:zoom="1.4142136"
     inkscape:cx="279.66073"
     inkscape:cy="-54.093669"
     inkscape:window-width="1920"
     inkscape:window-height="939"
     inkscape:window-x="1080"
     inkscape:window-y="531"
     inkscape:window-maximized="1"
     inkscape:current-layer="layer1" />
  <defs
     id="defs1" />
  <g
     inkscape:label="Layer 1"
     inkscape:groupmode="layer"
     id="layer1"
     transform="translate(-24.482329,-21.418187)">
    <text
       xml:space="preserve"
       style="font-size:22.5778px;font-family:'DejaVu Sans';-inkscape-font-specification:'DejaVu Sans';fill:#000000;stroke:#000000;stroke-width:2;-inkscape-stroke:none"
       x="36.637241"
       y="71.960442"
       id="text1"><tspan
         sodipodi:role="line"
         id="tspan1"
         style="stroke-width:2"
         x="36.637241"
         y="71.960442"></tspan></text>
    <g
       id="text13">
      <path
         style="color:#000000;-inkscape-font-specification:'DejaVu Sans';fill:#ffffff;-inkscape-stroke:none"
         d="m 24.732329,21.965843 h 2.226912 v 6.746882 h 8.091849 v -6.746882 h 2.226912 V 38.425148 H 35.05109 v -7.838289 h -8.091849 v 7.838289 h -2.226912 z"
         id="path33" />
      <path
         style="color:#000000;-inkscape-font-specification:'DejaVu Sans';fill:#ffffff;-inkscape-stroke:none"
         d="m 24.482422,21.716797 v 16.958984 h 2.726562 v -7.839844 h 7.591797 v 7.839844 h 2.726563 V 21.716797 h -2.726563 v 6.746094 h -7.591797 v -6.746094 z m 0.5,0.5 h 1.726562 v 6.746094 h 8.591797 v -6.746094 h 1.726563 v 15.958984 h -1.726563 v -7.839844 h -8.591797 v 7.839844 h -1.726562 z"
         id="path34" />
    </g>
    <g
       id="text12">
      <path
         style="color:#000000;-inkscape-font-specification:'DejaVu Sans';fill:#ffffff;-inkscape-stroke:none"
         d="m 40.772713,21.965843 h 2.392277 l 4.564067,6.768931 4.530994,-6.768931 h 2.392277 l -5.820839,8.621016 v 7.838289 h -2.237936 v -7.838289 z"
         id="path31" />
      <path
         style="color:#000000;-inkscape-font-specification:'DejaVu Sans';fill:#ffffff;-inkscape-stroke:none"
         d="m 40.302734,21.716797 6.041016,8.947265 v 8.011719 h 2.738281 v -8.011719 l 6.041016,-8.947265 h -2.996094 l -4.398437,6.570312 -4.429688,-6.570312 z m 0.941407,0.5 h 1.787109 l 4.699219,6.966797 4.662109,-6.966797 h 1.789063 l -5.59961,8.292969 v 7.666015 H 46.84375 v -7.666015 z"
         id="path32" />
    </g>
    <g
       id="text11">
      <path
         style="color:#000000;-inkscape-font-specification:'DejaVu Sans';fill:#ffffff;-inkscape-stroke:none"
         d="m 60.373948,23.79588 v 6.184641 h 2.800177 q 1.554428,0 2.403301,-0.804775 0.848872,-0.804775 0.848872,-2.293058 0,-1.477258 -0.848872,-2.282033 -0.848873,-0.804775 -2.403301,-0.804775 z m -2.226912,-1.830037 h 5.027089 q 2.767103,0 4.178216,1.256772 1.422137,1.245748 1.422137,3.660073 0,2.436374 -1.422137,3.682122 -1.411113,1.245748 -4.178216,1.245748 h -2.800177 v 6.61459 h -2.226912 z"
         id="path29" />
      <path
         style="color:#000000;-inkscape-font-specification:'DejaVu Sans';fill:#ffffff;-inkscape-stroke:none"
         d="m 57.896484,21.716797 1.132813,0.5 h 4.144531 c 1.806885,0 3.131586,0.409491 4.011719,1.193359 h 0.002 c 0.887876,0.777752 1.337891,1.912195 1.337891,3.472656 0,1.575606 -0.450565,2.716871 -1.337891,3.494141 -0.879962,0.776841 -2.206455,1.183594 -4.013672,1.183594 h -3.050781 v 6.615234 h -1.72661 V 22.216797 h 0.03125 l -0.03125,-0.0293 v -0.220703 l -0.113281,0.113281 z m 0,0 v 0.25 16.708984 h 2.726563 v -6.615234 h 2.550781 c 1.88225,0 3.34223,-0.424439 4.34375,-1.308594 1.008855,-0.883725 1.507813,-2.19625 1.507813,-3.869141 0,-1.658635 -0.499508,-2.964412 -1.507813,-3.847656 -1.001315,-0.891079 -2.461941,-1.318359 -4.34375,-1.318359 z m 4.144532,1.828125 1.132812,0.5 c 0.99314,0 1.721799,0.252231 2.232422,0.736328 0.510488,0.48397 0.769531,1.16461 0.769531,2.101562 0,0.944657 -0.259456,1.627751 -0.769531,2.111329 -0.510623,0.484097 -1.239282,0.736328 -2.232422,0.736328 h -2.550781 v -5.935547 l -0.25,0.25 -0.25,-0.234375 v 6.419922 h 3.050781 c 1.079429,0 1.954966,-0.284112 2.576172,-0.873047 0.621754,-0.589455 0.925781,-1.434891 0.925781,-2.47461 0,-1.032723 -0.304441,-1.873827 -0.925781,-2.46289 -0.621206,-0.588935 -1.496743,-0.875 -2.576172,-0.875 z"
         id="path30" />
    </g>
    <g
       id="text10">
      <path
         style="color:#000000;-inkscape-font-specification:'DejaVu Sans';fill:#ffffff;-inkscape-stroke:none"
         d="m 73.08499,21.965843 h 10.406955 v 1.874134 h -8.180043 v 4.872748 h 7.838289 v 1.874134 h -7.838289 v 5.964155 h 8.378481 v 1.874134 H 73.08499 Z"
         id="path27" />
      <path
         style="color:#000000;-inkscape-font-specification:'DejaVu Sans';fill:#ffffff;-inkscape-stroke:none"
         d="m 72.835937,21.716797 v 16.958984 h 11.103516 v -2.375 H 75.5625 v -5.464844 h 7.837891 V 28.462891 H 75.5625 v -4.373047 h 8.179687 v -2.373047 z m 0.5,0.5 h 9.90625 v 1.373047 H 75.0625 v 5.373047 h 7.837891 v 1.373046 H 75.0625 v 6.464844 h 8.376953 v 1.375 H 73.335937 Z"
         id="path28" />
    </g>
    <g
       id="text9">
      <path
         style="color:#000000;-inkscape-font-specification:'DejaVu Sans';fill:#ffffff;-inkscape-stroke:none"
         d="m 96.478585,30.708126 q 0.716581,0.242535 1.389064,1.036286 0.683508,0.793751 1.367016,2.182815 l 2.259985,4.497921 h -2.392277 l -2.105645,-4.222313 q -0.815799,-1.653648 -1.587501,-2.193839 -0.760678,-0.540192 -2.083596,-0.540192 h -2.42535 v 6.956344 H 88.673369 V 21.965843 h 5.027089 q 2.822225,0 4.211289,1.179602 1.389063,1.179602 1.389063,3.560854 0,1.554429 -0.727604,2.57969 -0.716581,1.025262 -2.094621,1.422137 z M 90.900281,23.79588 v 5.842888 h 2.800177 q 1.60955,0 2.425349,-0.73863 0.826824,-0.749653 0.826824,-2.193839 0,-1.444185 -0.826824,-2.17179 -0.815799,-0.738629 -2.425349,-0.738629 z"
         id="path25" />
      <path
         style="color:#000000;-inkscape-font-specification:'DejaVu Sans';fill:#ffffff;-inkscape-stroke:none"
         d="m 88.423828,21.716797 v 16.958984 h 2.726563 V 31.71875 h 2.175781 c 0.847917,0 1.486164,0.173626 1.9375,0.494141 h 0.002 c 0.450191,0.315133 0.973006,1.015541 1.507812,2.099609 v 0.002 l 2.173829,4.361328 h 2.953127 l -2.441409,-4.859375 v -0.002 c -0.461678,-0.937904 -0.926852,-1.680184 -1.40239,-2.232422 -0.468169,-0.552241 -0.964822,-0.930852 -1.498047,-1.111328 l -0.01172,0.478516 -0.335938,-0.423828 -0.568359,0.164062 0.755859,0.255859 c 0.421767,0.142752 0.851168,0.455605 1.279297,0.960938 v 0.002 c 0.435506,0.505749 0.882607,1.215559 1.332032,2.128906 l 0.002,0.002 2.078125,4.136719 H 99.257812 L 97.220703,34.091797 C 96.667779,32.971003 96.131479,32.209808 95.552734,31.804687 94.98999,31.405623 94.241393,31.21875 93.326172,31.21875 h -2.675781 v 6.957031 H 88.923828 V 22.216797 h 4.777344 c 1.846651,0 3.186462,0.386814 4.048828,1.11914 0.862775,0.732675 1.300781,1.832206 1.300781,3.371094 0,0.997278 -0.231083,1.798717 -0.68164,2.433594 v 0.002 c -0.01766,0.02527 -0.05983,0.02808 -0.07813,0.05273 0.137164,0.04695 0.440189,0.300389 0.486328,0.234375 0.518883,-0.731895 0.773437,-1.648077 0.773437,-2.722656 0,-1.636111 -0.487255,-2.911826 -1.476562,-3.751953 -0.989717,-0.840474 -2.456735,-1.238281 -4.373047,-1.238281 z m 2.226563,1.828125 c 0.07188,-0.0207 0.348097,0.218379 0.478515,0.271484 l -0.146484,0.146485 z m 0,0 v 0.25 6.09375 h 3.050781 c 0.68125,0 1.239865,-0.133436 1.736328,-0.333985 l -0.441406,-0.552734 c -0.406603,0.148891 -0.701407,0.386719 -1.294922,0.386719 h -2.550781 v -5.216797 l -0.101563,-0.126953 h 0.101563 v -0.216797 c 0.106598,0.04503 0.246452,0.131711 0.384765,0.216797 h 2.166016 c 1.03479,0 1.774587,0.238266 2.257812,0.675781 l 0.002,0.002 c 0.489634,0.430878 0.742188,1.069296 0.742188,1.984375 0,0.510864 -0.260821,0.765523 -0.416016,1.121094 0.182581,0.152678 0.374821,0.317698 0.544922,0.455078 0.222321,-0.454166 0.371094,-0.963674 0.371094,-1.576172 0,-1.009369 -0.298746,-1.818159 -0.910156,-2.357422 -0.604506,-0.547323 -1.480523,-0.804687 -2.591797,-0.804687 z"
         id="path26" />
    </g>
    <g
       id="text8">
      <path
         style="color:#000000;-inkscape-font-specification:'DejaVu Sans';fill:#ffffff;-inkscape-stroke:none"
         d="m 115.55066,22.506035 v 2.17179 q -1.2678,-0.606337 -2.39228,-0.903994 -1.12448,-0.297657 -2.17179,-0.297657 -1.81901,0 -2.8112,0.705557 -0.98116,0.705556 -0.98116,2.006425 0,1.091408 0.65043,1.653648 0.66146,0.551216 2.4915,0.89297 l 1.34497,0.275607 q 2.49149,0.474046 3.67109,1.675697 1.19063,1.190626 1.19063,3.197051 0,2.392277 -1.60955,3.627001 -1.59853,1.234723 -4.69636,1.234723 -1.16858,0 -2.4915,-0.264583 -1.31189,-0.264584 -2.723,-0.782727 v -2.293058 q 1.35599,0.760678 2.65686,1.146529 1.30087,0.385851 2.55764,0.385851 1.90721,0 2.94349,-0.749653 1.03629,-0.749654 1.03629,-2.138718 0,-1.212675 -0.74965,-1.896182 -0.73863,-0.683508 -2.43638,-1.025262 l -1.35599,-0.264583 q -2.4915,-0.496095 -3.60495,-1.554429 -1.11346,-1.058334 -1.11346,-2.943493 0,-2.182814 1.53238,-3.439586 1.54341,-1.256772 4.24436,-1.256772 1.15756,0 2.35921,0.209462 1.20165,0.209462 2.45842,0.628386 z"
         id="path23" />
      <path
         style="color:#000000;-inkscape-font-specification:'DejaVu Sans';fill:#ffffff;-inkscape-stroke:none"
         d="m 110.73242,21.417969 c -1.83941,0 -3.31803,0.429566 -4.40234,1.3125 v 0.002 c -1.07646,0.882852 -1.62305,2.119103 -1.62305,3.632812 0,1.305992 0.39538,2.366426 1.19141,3.123047 0.79565,0.756268 2.03916,1.283155 3.72656,1.619141 h 0.002 l 1.35352,0.265625 c 1.1071,0.222857 1.87882,0.557963 2.31641,0.96289 h 0.002 v 0.002 c 0.44537,0.406075 0.66797,0.954003 0.66797,1.710937 0,0.863872 -0.30215,1.478757 -0.9336,1.935547 -0.63184,0.457079 -1.55816,0.703125 -2.79687,0.703125 -0.81226,0 -1.64013,-0.125961 -2.48633,-0.376953 -0.84701,-0.251232 -1.7155,-0.625747 -2.60547,-1.125 l -0.37305,-0.207031 v 2.892578 l 0.16407,0.06055 c 0.95134,0.349323 1.8712,0.613761 2.75976,0.792968 h 0.002 c 0.89582,0.179165 1.74114,0.269532 2.53906,0.269532 2.09843,0 3.72209,-0.416203 4.84961,-1.28711 1.13406,-0.870606 1.70703,-2.173914 1.70703,-3.824219 0,-1.386002 -0.41961,-2.52788 -1.26172,-3.371093 -0.83619,-0.851821 -2.10982,-1.424096 -3.80078,-1.746094 h -0.002 l -1.34375,-0.275391 -0.002,-0.002 c -1.19946,-0.223995 -2.00078,-0.525343 -2.375,-0.835937 -0.37307,-0.32249 -0.56445,-0.786902 -0.56445,-1.464844 0,-0.804392 0.28393,-1.374883 0.87891,-1.802734 0.60262,-0.427987 1.48452,-0.658203 2.66406,-0.658204 0.67452,0 1.37633,0.09554 2.10742,0.289063 0.73153,0.19364 1.516,0.48999 2.34961,0.888672 l 0.35742,0.169922 v -2.748047 c -0.84866,-0.282889 -1.85166,-0.553362 -2.66601,-0.695313 -0.81448,-0.141973 -1.61556,-0.21289 -2.40235,-0.21289 z m 0,0.5 c 0.75663,0 1.52869,0.06777 2.31641,0.205078 0.73262,0.127704 1.48546,0.330821 2.25195,0.578125 v 1.617187 c -0.71983,-0.323946 -1.42296,-0.613684 -2.07812,-0.787109 -0.76822,-0.203351 -1.51444,-0.304688 -2.23633,-0.304688 -1.245,0 -2.23482,0.239768 -2.95508,0.751954 h -0.002 c -0.71324,0.512888 -1.08594,1.278886 -1.08594,2.208984 0,0.777267 0.24411,1.416587 0.73828,1.84375 l 0.002,0.002 h 0.002 c 0.50856,0.423799 1.36694,0.715975 2.60547,0.947266 h -0.006 l 1.34765,0.27539 h 0.002 c 1.63,0.310135 2.80279,0.855434 3.53906,1.605469 l 0.002,0.002 c 0.7441,0.7441 1.11719,1.731367 1.11719,3.019531 0,1.538783 -0.50055,2.653998 -1.51172,3.429688 -1.00386,0.775389 -2.51292,1.181641 -4.54492,1.181641 -0.76019,0 -1.57334,-0.08615 -2.44141,-0.259766 -0.80864,-0.163088 -1.65341,-0.413267 -2.52344,-0.724609 v -1.726563 c 0.78852,0.414775 1.57013,0.780664 2.33594,1.007813 0.88829,0.263475 1.76548,0.396484 2.62891,0.396484 1.30423,0 2.33998,-0.254417 3.08984,-0.796875 0.75027,-0.542748 1.14063,-1.353586 1.14063,-2.341797 0,-0.85899 -0.27717,-1.574908 -0.83008,-2.080078 -0.54726,-0.506416 -1.40008,-0.853123 -2.55664,-1.085938 v -0.002 l -1.35742,-0.263672 c -1.6346,-0.325473 -2.79153,-0.835391 -3.48047,-1.490234 -0.68858,-0.654489 -1.03516,-1.554168 -1.03516,-2.761719 0,-1.396706 0.47274,-2.453251 1.43945,-3.246093 0.97357,-0.792761 2.32409,-1.201172 4.08594,-1.201172 z"
         id="path24" />
    </g>
    <g
       id="text7">
      <path
         style="color:#000000;-inkscape-font-specification:'DejaVu Sans';fill:#ffffff;-inkscape-stroke:none"
         d="m 128.01917,23.476174 q -2.42535,0 -3.85851,1.807988 -1.42214,1.807988 -1.42214,4.92787 0,3.108857 1.42214,4.916845 1.43316,1.807988 3.85851,1.807988 2.42535,0 3.83646,-1.807988 1.42214,-1.807988 1.42214,-4.916845 0,-3.119882 -1.42214,-4.92787 -1.41111,-1.807988 -3.83646,-1.807988 z m 0,-1.807987 q 3.46163,0 5.5342,2.32613 2.07258,2.315107 2.07258,6.217715 0,3.891584 -2.07258,6.217715 -2.07257,2.315106 -5.5342,2.315106 -3.47266,0 -5.55626,-2.315106 -2.07257,-2.315107 -2.07257,-6.217715 0,-3.902608 2.07257,-6.217715 2.0836,-2.32613 5.55626,-2.32613 z"
         id="path21" />
      <path
         style="color:#000000;-inkscape-font-specification:'DejaVu Sans';fill:#ffffff;-inkscape-stroke:none"
         d="m 128.01953,21.417969 c -2.37092,0 -4.30707,0.807989 -5.74219,2.410156 -1.42827,1.595416 -2.13671,3.738774 -2.13671,6.384766 0,2.645992 0.70844,4.787397 2.13671,6.382812 v 0.002 c 1.43527,1.594735 3.37153,2.396485 5.74219,2.396485 2.36348,0 4.29286,-0.803501 5.7207,-2.398438 1.42779,-1.602453 2.13477,-3.744044 2.13477,-6.382812 0,-2.645993 -0.70648,-4.789351 -2.13477,-6.384766 -1.4277,-1.602367 -3.35695,-2.410156 -5.7207,-2.410156 z m 0,0.5 c 2.25175,0 4.01193,0.743051 5.34766,2.242187 1.33515,1.491391 2.00781,3.495255 2.00781,6.052735 0,2.550005 -0.67216,4.551729 -2.00781,6.050781 -1.33558,1.491868 -3.09564,2.230469 -5.34766,2.230469 -2.25955,0 -4.02823,-0.740352 -5.37109,-2.232422 -1.33441,-1.491259 -2.00781,-3.492064 -2.00781,-6.048828 0,-2.55748 0.67266,-4.561344 2.00781,-6.052735 1.34301,-1.499337 3.11181,-2.242187 5.37109,-2.242187 z m 0,1.308593 c -1.67902,10e-7 -3.0566,0.643221 -4.05469,1.902344 -0.99129,1.260247 -1.47656,2.966079 -1.47656,5.083985 0,2.11069 0.48542,3.81026 1.47656,5.070312 0.99809,1.259124 2.37567,1.904297 4.05469,1.904297 1.67902,0 3.04972,-0.644208 4.0332,-1.904297 0.99115,-1.260052 1.47461,-2.959622 1.47461,-5.070312 0,-2.11716 -0.48402,-3.821916 -1.47461,-5.082032 -0.98348,-1.260088 -2.35418,-1.904296 -4.0332,-1.904297 z m 0,0.5 c 1.55478,10e-7 2.74068,0.560378 3.63867,1.710938 v 0.002 c 0.90489,1.150402 1.36914,2.731504 1.36914,4.773438 0,2.034448 -0.46409,3.611123 -1.36914,4.761718 -0.89799,1.15056 -2.08389,1.712891 -3.63867,1.712891 -1.55478,0 -2.74931,-0.563319 -3.66211,-1.714844 -0.90436,-1.150482 -1.36914,-2.726092 -1.36914,-4.759765 0,-2.041934 0.46425,-3.623036 1.36914,-4.773438 0.9128,-1.151525 2.10733,-1.71289 3.66211,-1.712891 z"
         id="path22" />
    </g>
    <g
       id="text6">
      <path
         style="color:#000000;-inkscape-font-specification:'DejaVu Sans';fill:#ffffff;-inkscape-stroke:none"
         d="m 140.43255,21.965843 h 2.99861 l 7.2981,13.769372 V 21.965843 h 2.16077 v 16.459305 h -2.99862 l -7.2981,-13.769372 v 13.769372 h -2.16076 z"
         id="path19" />
      <path
         style="color:#000000;-inkscape-font-specification:'DejaVu Sans';fill:#ffffff;-inkscape-stroke:none"
         d="m 140.18164,21.716797 v 16.958984 h 2.66211 V 25.662109 l 6.89648,13.013672 h 3.40039 V 21.716797 h -2.6621 v 13.011719 l -6.89649,-13.011719 z m 0.5,0.5 h 2.59961 l 7.22656,13.634765 0.47071,-0.117187 V 22.216797 h 1.6621 v 15.958984 h -2.5996 l -7.22657,-13.636719 -0.4707,0.117188 v 13.519531 h -1.66211 z"
         id="path20" />
    </g>
    <g
       id="text5">
      <path
         style="color:#000000;-inkscape-font-specification:'DejaVu Sans';fill:#ffffff;-inkscape-stroke:none"
         d="m 158.64472,21.965843 h 2.22691 v 16.459305 h -2.22691 z"
         id="path17" />
      <path
         style="color:#000000;-inkscape-font-specification:'DejaVu Sans';fill:#ffffff;-inkscape-stroke:none"
         d="m 158.39453,21.716797 v 16.958984 h 2.72656 V 21.716797 Z m 0.5,0.5 h 1.72656 v 15.958984 h -1.72656 z"
         id="path18" />
    </g>
    <g
       id="text4">
      <path
         style="color:#000000;-inkscape-font-specification:'DejaVu Sans';fill:#ffffff;-inkscape-stroke:none"
         d="m 173.30707,23.476174 c -1.6169,0 -2.90307,0.602663 -3.85851,1.807988 -0.94809,1.205325 -1.42214,2.847949 -1.42214,4.92787 0,2.072571 0.47405,3.71152 1.42214,4.916845 0.95544,1.205325 2.24161,1.807988 3.85851,1.807988 1.6169,0 2.89572,-0.602663 3.83646,-1.807988 0.94809,-1.205325 1.42214,-2.844274 1.42214,-4.916845 0,-2.079921 -0.47405,-3.722545 -1.42214,-4.92787 -0.94074,-1.205325 -2.21956,-1.807988 -3.83646,-1.807988 z m 2.72273,14.706465 2.2372,2.288562 -1.59751,0.864367 -2.43638,-2.634812 c -0.24253,0.0147 -0.42995,0.02572 -0.56224,0.03307 -0.12494,0.0073 -0.24621,0.01102 -0.3638,0.01102 -2.31511,0 -4.16719,-0.771702 -5.55626,-2.315106 -1.38171,-1.550754 -2.07257,-3.623326 -2.07257,-6.217715 0,-2.601739 0.69086,-4.67431 2.07257,-6.217715 1.38907,-1.550753 3.24115,-2.32613 5.55626,-2.32613 2.30776,0 4.1525,0.775377 5.53421,2.32613 1.38171,1.543405 2.07257,3.615976 2.07257,6.217715 0,1.910881 -0.38585,3.546155 -1.15755,4.905821 -0.76435,1.359666 -1.87414,2.362879 -3.32935,3.009638 z"
         id="path13"
         sodipodi:nodetypes="scscscscscccccscscscscsc" />
      <path
         style="color:#000000;-inkscape-font-specification:'DejaVu Sans';fill:#ffffff;-inkscape-stroke:none"
         d="m 173.30664,21.417969 c -2.37092,0 -4.30707,0.807989 -5.74219,2.410156 -1.42827,1.595416 -2.13672,3.738774 -2.13672,6.384766 0,2.638768 0.70895,4.780359 2.13672,6.382812 v 0.002 c 1.43527,1.594735 3.37153,2.396485 5.74219,2.396485 0.1228,0 0.24938,-0.0041 0.37891,-0.01172 v 0.002 c 0.10487,-0.0058 0.27041,-0.01502 0.44336,-0.02539 l 2.43164,2.626953 2.34244,-1.330863 -2.0944,-2.079293 c 1.34912,-0.668857 2.4322,-1.628852 3.16602,-2.933594 v -0.002 c 0.79593,-1.403077 1.18945,-3.083525 1.18945,-5.027343 0,-2.645992 -0.70844,-4.78935 -2.13672,-6.384766 -1.4277,-1.602367 -3.35694,-2.410156 -5.7207,-2.410156 z m 0,0.5 c 2.25176,0 4.01193,0.743051 5.34766,2.242187 1.33515,1.491391 2.00976,3.495255 2.00976,6.052735 0,1.877225 -0.37811,3.465309 -1.125,4.78125 v 0.002 c -0.73944,1.315348 -1.80225,2.275394 -3.21289,2.902343 l -0.31836,0.140625 0.23438,0.257813 -0.46925,-0.613526 1.00636,3.402588 -2.44336,-2.642578 -0.11719,0.0078 c -0.2423,0.01469 -0.43098,0.0259 -0.5625,0.0332 -0.12035,0.0071 -0.23722,0.0098 -0.34961,0.0098 -2.25955,0 -4.02627,-0.740352 -5.36914,-2.232422 -1.3349,-1.498914 -2.00977,-3.499536 -2.00977,-6.048828 0,-2.55748 0.67462,-4.561344 2.00977,-6.052735 1.34301,-1.499337 3.10986,-2.242187 5.36914,-2.242187 z m 0,1.308593 c -1.67902,10e-7 -3.0566,0.643221 -4.05469,1.902344 -0.99129,1.260247 -1.47461,2.966079 -1.47461,5.083985 0,2.11069 0.48347,3.81026 1.47461,5.070312 0.99809,1.259124 2.37567,1.904297 4.05469,1.904297 1.67902,0 3.04972,-0.644208 4.0332,-1.904297 0.99114,-1.260052 1.47657,-2.959622 1.47657,-5.070312 0,-2.11716 -0.48598,-3.821916 -1.47657,-5.082032 -0.98348,-1.260088 -2.35418,-1.904297 -4.0332,-1.904297 z m 0,0.5 c 1.55478,10e-7 2.74263,0.560378 3.64063,1.710938 v 0.002 c 0.90489,1.150402 1.36914,2.731504 1.36914,4.773438 0,2.034448 -0.4641,3.611123 -1.36914,4.761718 -0.898,1.15056 -2.08585,1.712891 -3.64063,1.712891 -1.55478,0 -2.74932,-0.563319 -3.66211,-1.714844 -0.90436,-1.150482 -1.36719,-2.726092 -1.36719,-4.759765 0,-2.041934 0.4623,-3.623036 1.36719,-4.773438 0.91279,-1.151525 2.10733,-1.71289 3.66211,-1.712891 z"
         id="path14"
         sodipodi:nodetypes="ccsccsccccccccscccccsccccccccccscscccscscscscscccscscsccc" />
    </g>
    <g
       id="rect14"
       transform="rotate(-45)">
      <path
         style="color:#000000;fill:#ff0000;-inkscape-stroke:none"
         d="m 95.74804,146.33418 2.172917,0.1519 -0.02224,8.31337 -2.314623,-0.65153 z"
         id="path15" />
      <path
         style="color:#000000;fill:#ff0000;-inkscape-stroke:none"
         d="m 95.609375,146.18164 -0.169922,8.07422 2.601563,0.73242 0.02344,-8.63476 z m 0.277344,0.30469 1.890625,0.13281 -0.02148,7.99219 -2.027343,-0.57031 z"
         id="path16" />
    </g>
  </g>
</svg>
